<svg width="20" height="21" viewBox="0 0 20 21" fill="none" xmlns="http://www.w3.org/2000/svg">
<g clip-path="url(#clip0_1356_2444)">
<path d="M19.8055 10.9606C19.8055 10.2808 19.7504 9.59734 19.6328 8.92859H10.2005V12.7794H15.602C15.3778 14.0214 14.6576 15.12 13.6031 15.8182V18.3168H16.8256C18.7179 16.5751 19.8055 14.003 19.8055 10.9606Z" fill="#4285F4"/>
<path d="M10.2005 20.7309C12.8975 20.7309 15.172 19.8453 16.8292 18.3167L13.6067 15.8181C12.7101 16.4281 11.5527 16.7735 10.2041 16.7735C7.59529 16.7735 5.38327 15.0134 4.58959 12.6471H1.26422V15.2229C2.96181 18.5997 6.41947 20.7309 10.2005 20.7309V20.7309Z" fill="#34A853"/>
<path d="M4.58598 12.6471C4.16709 11.4052 4.16709 10.0603 4.58598 8.81837V6.24258H1.26428C-0.154053 9.06823 -0.154053 12.3973 1.26428 15.2229L4.58598 12.6471V12.6471Z" fill="#FBBC04"/>
<path d="M10.2005 4.68824C11.6262 4.6662 13.0041 5.20267 14.0366 6.18742L16.8916 3.33237C15.0838 1.63478 12.6844 0.701472 10.2005 0.730868C6.41947 0.730868 2.96181 2.86205 1.26422 6.24253L4.58592 8.81832C5.37592 6.4483 7.59161 4.68824 10.2005 4.68824V4.68824Z" fill="#EA4335"/>
</g>
<defs>
<clipPath id="clip0_1356_2444">
<rect width="20" height="20" fill="white" transform="translate(0.000488281 0.730194)"/>
</clipPath>
</defs>
</svg>
